Coordinates
version=1
nRows=10
nColumns=34
inDegrees=yes

Units are S.I. units (second, meters, Newtons, ...)
If the header above contains a line with 'inDegrees', this indicates whether rotational values are in degrees (yes) or radians (no).

endheader
time	pelvis_tilt	pelvis_list	pelvis_rotation	pelvis_tx	pelvis_ty	pelvis_tz	hip_flexion_r	hip_adduction_r	hip_rotation_r	knee_angle_r	ankle_angle_r	subtalar_angle_r	mtp_angle_r	hip_flexion_l	hip_adduction_l	hip_rotation_l	knee_angle_l	ankle_angle_l	subtalar_angle_l	mtp_angle_l	lumbar_extension	lumbar_bending	lumbar_rotation	arm_flex_r	arm_add_r	arm_rot_r	elbow_flex_r	pro_sup_r	arm_flex_l	arm_add_l	arm_rot_l	elbow_flex_l	pro_sup_l
      3.61666670	      0.06438181	     -5.17836870	    -23.74245038	      0.02931735	      0.97472467	     -0.15417703	      3.10932392	      0.94497849	     -2.28372450	      9.15296169	      8.45196149	      2.52250767	      0.00000000	     -3.42272640	     -3.89875428	     -7.58850319	      2.81494000	     10.86214546	     -4.88471151	      0.00000000	     -3.24291781	      3.74748224	      2.32969547	     -1.92723341	    -46.34898918	    -52.93115241	     35.75095734	    119.74817918	      4.78573221	    -46.62767001	    -43.12511590	     31.22369072	    119.74817918
      3.63333330	      0.32280503	     -5.16837315	    -23.81106841	      0.02826660	      0.97472277	     -0.15460200	      3.14923643	      0.79711627	     -2.44789902	      9.52485873	      8.51000350	      2.40327800	      0.00000000	     -3.48918102	     -3.76750744	     -7.92947807	      3.03005894	     10.84513041	     -5.12637132	      0.00000000	     -3.69801041	      3.65790386	      1.96515494	     -0.59209529	    -45.46006905	    -50.21356793	     34.85732491	    119.74817918	      4.30506307	    -45.48503413	    -42.19112860	     30.80239714	    119.74817918
      3.65000000	      0.31176668	     -5.17227093	    -23.78935783	      0.02807636	      0.97439765	     -0.15488062	      3.14720649	      0.80847450	     -2.37577993	      9.48102510	      8.58865916	      2.45071704	      0.00000000	     -3.51011083	     -3.75500534	     -7.84828310	      2.95176563	     10.87092415	     -5.05666684	      0.00000000	     -3.69862597	      3.70462851	      1.91301633	     -0.39568623	    -44.11861506	    -49.75297889	     34.64428523	    119.74817918	      4.32369265	    -43.85336272	    -41.82036910	     30.72339603	    119.74817918
      3.66666670	      0.36498988	     -5.18928777	    -23.77381091	      0.02821766	      0.97422734	     -0.15503083	      3.12524135	      0.80155100	     -2.38296840	      9.53174084	      8.63368763	      2.44082394	      0.00000000	     -3.56329898	     -3.72993642	     -7.86913414	      2.92977071	     10.91608289	     -5.07146073	      0.00000000	     -3.76537942	      3.74285016	      1.84271538	     -0.18124500	    -42.71516877	    -49.23559970	     34.37636798	    119.74817918	      4.32185334	    -42.22020803	    -41.44205163	     30.58184588	    119.74817918
      3.68333330	      0.44131889	     -5.21753284	    -23.78097906	      0.02864326	      0.97425588	     -0.15486358	      3.06096480	      0.80376553	     -2.38540744	      9.64447168	      8.68251082	      2.41181998	      0.00000000	     -3.64516366	     -3.71950311	     -7.88907834	      2.98409319	     10.96760285	     -5.11075324	      0.00000000	     -3.80635297	      3.75403794	      1.79108962	     -0.15654757	    -41.23657185	    -48.85633422	     34.09563624	    119.74817918	      4.21906336	    -40.59540711	    -41.11492072	     30.35113773	    119.74817918
      3.70000000	      0.72540177	     -5.27364959	    -23.76490915	      0.02803950	      0.97456730	     -0.15543523	      3.02270525	      0.70052460	     -2.54004731	     10.04678488	      8.70466828	      2.35220219	      0.00000000	     -3.75987913	     -3.65909923	     -8.04035799	      3.20869773	     10.93595621	     -5.15682972	      0.00000000	     -4.32322502	      3.72697141	      1.56726779	      0.66294627	    -39.94841407	    -47.53511115	     33.41261040	    119.74817918	      4.16159832	    -38.97687404	    -40.51161970	     30.08303248	    119.74817918
      3.71666670	      0.77360545	     -5.29878051	    -23.77090671	      0.02874762	      0.97460162	     -0.15516209	      2.95152139	      0.69444549	     -2.54018177	     10.10842534	      8.79967680	      2.32358054	      0.00000000	     -3.84740987	     -3.65060462	     -8.08249435	      3.21671793	     11.03334155	     -5.22038801	      0.00000000	     -4.31628151	      3.74224204	      1.50279854	      0.64847019	    -38.33949820	    -47.14507911	     33.11605282	    119.74817918	      4.06587926	    -37.27947365	    -40.17023546	     29.85680113	    119.74817918
      3.73333330	      0.82491706	     -5.32191878	    -23.77805924	      0.02918105	      0.97448494	     -0.15496838	      2.89965139	      0.69679065	     -2.54234689	     10.18001851	      8.89410345	      2.29501202	      0.00000000	     -3.91616581	     -3.64841337	     -8.13512465	      3.22304456	     11.12117238	     -5.28482767	      0.00000000	     -4.36488923	      3.73586288	      1.41918734	      0.69154009	    -36.72777570	    -46.72865420	     32.84084531	    119.74817918	      4.01837362	    -35.52734151	    -39.79734638	     29.65282534	    119.74817918
      3.75000000	      0.88568349	     -5.35486898	    -23.78961723	      0.02946511	      0.97429017	     -0.15484163	      2.85005111	      0.68998254	     -2.54239709	     10.27705464	      8.98153021	      2.26680016	      0.00000000	     -3.97856410	     -3.63186789	     -8.18599071	      3.24942707	     11.19664442	     -5.34519366	      0.00000000	     -4.45028022	      3.75286707	      1.33664124	      0.73797150	    -35.03731276	    -46.29252013	     32.55767784	    119.74817918	      3.97791795	    -33.71458779	    -39.40406622	     29.45133307	    119.74817918
      3.76666670	      1.26333203	     -5.43259787	    -23.80667263	      0.02851876	      0.97434533	     -0.15533733	      2.76381523	      0.57472612	     -2.67604793	     10.80353813	      9.23448597	      2.29533056	      0.00000000	     -4.11585567	     -3.57448100	     -8.42655228	      3.63784245	     11.23447010	     -5.43537982	      0.00000000	     -5.14858745	      3.66098928	      1.14189014	      1.23077340	    -33.59746097	    -44.56586465	     32.05006988	    119.74817918	      3.81658583	    -32.04550725	    -38.29629375	     29.59624914	    119.74817918
